<?xml version="1.0" encoding="UTF-8"?>
<svg width="91px" height="75px" viewBox="0 0 91 75" version="1.1" xmlns="http://www.w3.org/2000/svg" xmlns:xlink="http://www.w3.org/1999/xlink">
    <!-- Generator: Sketch 48.2 (47327) - http://www.bohemiancoding.com/sketch -->
    <title>cat-sleeping</title>
    <desc>Created with Sketch.</desc>
    <defs></defs>
    <g id="Page-1" stroke="none" stroke-width="1" fill="none" fill-rule="evenodd">
        <g id="cat-sleeping" fill="#000000" fill-rule="nonzero">
            <path d="M64.608,62.617 C57.004,80.043 13.208,79.643 3.045,49.7 C-3.234,31.215 2.468,17.323 13.302,8.561 C34.455,-8.554 59.481,7.425 62.31,11.669 C66.267,17.607 74.34,13.97 82.298,29.537 C83.184,31.269 89.819,31.394 90.438,42.805 C84.598,42.442 83.989,42.017 80.381,41.011 C78.646,42.934 78.784,45.384 74.744,48.995 C76.816,54.548 76.816,54.548 77.241,59.174 C72.571,59.521 69.144,59.545 64.099,54.328 C64.099,54.328 57.657,55.17 51.646,50.729 C37.051,67.359 16.935,56.156 12.425,52.177 C21.621,66.95 44.889,63.142 51.739,57.664 C58.596,52.18 66.466,55.717 64.608,62.617 Z" id="Shape"></path>
        </g>
    </g>
</svg>