<?xml version="1.0" encoding="UTF-8"?>
<svg width="91px" height="78px" viewBox="0 0 91 78" version="1.1" xmlns="http://www.w3.org/2000/svg" xmlns:xlink="http://www.w3.org/1999/xlink">
    <!-- Generator: Sketch 48.2 (47327) - http://www.bohemiancoding.com/sketch -->
    <title>cat-attention</title>
    <desc>Created with Sketch.</desc>
    <defs></defs>
    <g id="Page-1" stroke="none" stroke-width="1" fill="none" fill-rule="evenodd">
        <g id="cat-attention" fill="#000000" fill-rule="nonzero">
            <path d="M84.678,76.594 C66.109,77.038 85.781,76.594 47.946,76.961 C9.174,77.338 6.804,78.614 5.337,72.921 C3.68,66.496 10.854,66.766 10.854,66.766 C13.567,54.94 12.668,52.033 12.316,50.33 C1.156,42.405 0.518,32.81 5.702,26.088 C10.66,19.658 -3.606,17.645 1.598,10.395 C2.149,10.209 1.009,5.27 4.049,3.498 C13.566,5.27 14.885,-4.4 27.558,4.415 C34.54,2.755 32.364,4.621 37.691,1.866 C40.447,0.581 39.789,10.728 35.564,14.403 C37.457,28.595 20.189,25.756 30.832,32.852 C54.113,40.383 49.771,60.212 45.915,68.661 C60.424,69.213 73.559,68.436 84.762,68.805 C92.293,70.272 92.393,76.408 84.678,76.594 Z" id="Shape"></path>
        </g>
    </g>
</svg>