<?xml version="1.0" encoding="UTF-8"?>
<svg width="91px" height="81px" viewBox="0 0 91 81" version="1.1" xmlns="http://www.w3.org/2000/svg" xmlns:xlink="http://www.w3.org/1999/xlink">
    <!-- Generator: Sketch 48.2 (47327) - http://www.bohemiancoding.com/sketch -->
    <title>cat-sleeping-2</title>
    <desc>Created with Sketch.</desc>
    <defs></defs>
    <g id="Page-1" stroke="none" stroke-width="1" fill="none" fill-rule="evenodd">
        <g id="cat-sleeping-2" fill="#000000" fill-rule="nonzero">
            <path d="M79.43,45.406 C80.124,50.757 74.958,90.192 87.886,78.223 C92.834,71.36 89.324,34.035 83.785,24.023 C75.53,9.106 58.532,15.725 50.591,22.186 C47.456,24.741 44.411,24.741 43.715,23.064 C42.145,8.539 30.686,10.681 30.197,8.362 C29.003,2.64 21.327,-0.569 21,0.463 C19.887,3.957 19.887,3.957 20.255,10.215 C13.856,14.94 12.63,18.529 12.002,18.596 C10.06,18.803 3.122,18.423 2.304,19.791 C1.585,20.989 4.843,28.57 9.605,29.727 C11.941,30.294 11.04,35.473 16.362,36.95 C19.548,37.836 8.084,34.798 2.156,40.064 C-3.767,45.33 5.656,48.399 9.736,44.693 C16.01,42.938 15.14,47.084 30.643,44.294 C26.814,47.326 30.034,58.019 32.214,60.731 C35.181,64.082 41.057,62.764 40.572,58.18 C40.221,54.829 36.133,54.588 38.483,50.759 L42.576,45.889 C42.576,45.889 54.861,46.688 58.606,44.773 C57.605,54.015 79.43,45.406 79.43,45.406 Z" id="Shape"></path>
        </g>
    </g>
</svg>