<?xml version="1.0" encoding="UTF-8"?>
<svg width="83px" height="91px" viewBox="0 0 83 91" version="1.1" xmlns="http://www.w3.org/2000/svg" xmlns:xlink="http://www.w3.org/1999/xlink">
    <!-- Generator: Sketch 48.2 (47327) - http://www.bohemiancoding.com/sketch -->
    <title>cat-playing</title>
    <desc>Created with Sketch.</desc>
    <defs></defs>
    <g id="Page-1" stroke="none" stroke-width="1" fill="none" fill-rule="evenodd">
        <g id="cat-playing" fill="#000000" fill-rule="nonzero">
            <path d="M20.305,86.537 C14.173,95.393 -1.209,76.378 0.285,67.712 C3.327,50.071 -0.973,47.856 2.677,46.198 C5.963,44.704 8.055,50.979 7.456,47.393 C7.158,45.003 6.212,46.895 9.201,40.919 C1.64,33.384 -2.292,21.093 4.773,15.38 C12.779,8.905 21.64,11.531 26.563,13.172 C36.553,16.782 30.329,-2.813 46.081,0.797 C51.914,2.133 42.471,25.644 29.517,24.331 C4.392,21.785 10.818,29.156 13.919,36.57 C33.341,28.203 50.186,36.937 51.681,47.993 C59.151,47.097 58.851,50.683 61.839,47.993 C66.053,44.2 76.779,45.603 76.779,47.395 C76.779,55.165 71.4,55.165 71.4,58.152 C75.882,63.232 72.596,68.312 72.596,68.312 C79.469,71.301 77.974,70.702 82.157,74.288 C78.273,79.367 66.022,79.666 66.022,79.666 C76.779,83.251 76.481,88.161 72.597,89.825 C68.414,91.617 63.931,88.331 61.84,87.435 C52.577,88.63 39.729,91.021 36.74,85.643 C35.363,83.164 40.325,85.045 34.948,80.862 C25.088,84.447 12.538,72.496 12.538,72.496 C19.112,78.771 5.366,67.416 17.317,79.966 C21.5,82.354 22.994,82.653 20.305,86.537 Z" id="Shape"></path>
        </g>
    </g>
</svg>