<?xml version="1.0" encoding="UTF-8"?>
<svg width="60px" height="90px" viewBox="0 0 60 90" version="1.1" xmlns="http://www.w3.org/2000/svg" xmlns:xlink="http://www.w3.org/1999/xlink">
    <!-- Generator: Sketch 48.2 (47327) - http://www.bohemiancoding.com/sketch -->
    <title>cat-back</title>
    <desc>Created with Sketch.</desc>
    <defs></defs>
    <g id="Page-1" stroke="none" stroke-width="1" fill="none" fill-rule="evenodd">
        <g id="cat-back" transform="translate(0.000000, -1.000000)" fill="#000000" fill-rule="nonzero">
            <path d="M7.817,13.233 C7.817,13.233 14.594,12.646 18.287,17.417 C20.07,13.041 27.659,9.955 30.479,10.965 C31.125,3.215 34.03,0.956 34.03,0.956 C34.03,0.956 42.587,3.377 42.587,11.773 C49.91,15.8 55.109,30.811 42.833,38.766 C43.436,51.156 59.127,52.018 59.14,65.845 C59.156,80.387 38.698,82.076 41.066,81.837 C34.406,89.708 21.469,94.318 10.562,87.987 C-2.568,80.371 -2.109,61.832 7.389,63.293 C17.172,64.798 6.025,73.075 12.366,80.12 C15.456,83.551 25.779,88.367 35.564,81.84 C35.564,81.84 18.888,82.13 18.888,68.066 C18.888,54.002 31.417,55.593 28.843,43.118 C13.43,44.656 10.975,32.529 12.194,28.133 C4.898,23.361 7.817,13.233 7.817,13.233 Z" id="Shape"></path>
        </g>
    </g>
</svg>