<?xml version="1.0" encoding="UTF-8"?>
<svg width="85px" height="91px" viewBox="0 0 85 91" version="1.1" xmlns="http://www.w3.org/2000/svg" xmlns:xlink="http://www.w3.org/1999/xlink">
    <!-- Generator: Sketch 48.2 (47327) - http://www.bohemiancoding.com/sketch -->
    <title>cat-string</title>
    <desc>Created with Sketch.</desc>
    <defs></defs>
    <g id="Page-1" stroke="none" stroke-width="1" fill="none" fill-rule="evenodd">
        <g id="cat-string" fill="#000000" fill-rule="nonzero">
            <path d="M34.845,80.655 C39.806,79.851 42.867,82.889 41.715,86.666 C41.064,88.801 38.011,89.559 38.01,89.558 C-5.644,95.896 -5.62,72.808 9.728,68.702 C6.299,54.35 13.977,46.882 20.612,42.271 C20.674,42.22 26.591,38.922 26.591,38.922 C31.018,36.888 31.816,32.589 31.816,32.589 C22.308,13.605 36.588,5.126 42.979,4.364 C49.037,-0.182 54.857,0.058 59.364,1.853 C54.26,5.76 54.461,8.02 55.803,9.566 C66.639,16.896 60.439,26.56 62.935,31.024 C64.665,34.114 59.364,35.747 59.364,35.747 C57.566,39.72 52.32,38.24 52.32,38.24 C55.267,44.224 53.467,49.201 53.467,49.201 C62.292,55.209 68.552,58.421 65.855,60.291 C62.689,62.484 58.946,58.946 58.946,58.946 C49.989,59.155 50.729,57.607 50.729,57.607 C48.024,57.524 47.082,58.465 47.082,58.465 C47.45,58.719 48.957,65.765 44.174,68.167 C47.995,68.141 51.868,67.733 51.83,72.942 C52.492,76.214 46.759,75.425 46.759,75.425 C35.936,74.236 28.984,75.364 20.892,75.678 C16.104,75.863 12.481,74.631 10.926,72.583 C10.926,72.583 8.154,73.09 6.98,75.046 C4.625,78.969 6.526,85.243 34.845,80.655 Z" id="Shape"></path>
            <path d="M84.476,79.988 C84.325,79.38 83.854,78.973 83.152,78.843 L82.427,78.714 C81.068,78.475 79.893,78.27 79.163,77.663 C78.605,77.203 78.749,75.092 78.835,73.832 C78.873,73.295 78.9,72.833 78.901,72.443 C79.388,71.31 79.663,70.062 79.663,68.748 C79.663,63.621 75.555,60.575 70.487,60.575 C65.425,60.575 61.317,63.62 61.317,68.748 C61.317,73.873 65.424,78.031 70.487,78.031 C73.506,78.031 76.176,76.549 77.848,74.272 C77.743,75.944 77.702,77.698 78.551,78.4 C79.477,79.167 80.766,79.393 82.26,79.655 L82.977,79.783 C83.405,79.863 83.506,80.058 83.548,80.219 C83.698,80.824 83.136,81.855 82.573,82.306 C81.577,83.099 81.202,83.301 79.131,83.84 C77.61,84.235 76.595,84.178 75.695,84.129 C75.409,84.113 75.14,84.098 74.88,84.098 C74.872,84.098 74.866,84.098 74.863,84.098 C73.325,84.098 70.695,83.028 70.668,83.017 L70.553,82.986 C70.113,82.925 69.286,82.726 68.412,82.514 C67.521,82.299 66.601,82.076 65.877,81.946 C60.457,80.975 59.184,82.976 58.34,84.3 C58.15,84.601 57.985,84.861 57.809,85.015 L58.443,85.731 C58.718,85.487 58.928,85.16 59.146,84.814 C59.897,83.639 60.919,82.027 65.709,82.888 C66.405,83.013 67.309,83.232 68.185,83.444 C69.05,83.652 69.865,83.851 70.364,83.925 C70.776,84.091 73.252,85.055 74.865,85.055 C74.866,85.055 74.868,85.055 74.87,85.055 C75.134,85.065 75.374,85.069 75.644,85.084 C76.559,85.135 77.706,85.199 79.372,84.767 C81.477,84.219 82.01,83.98 83.169,83.056 C84.005,82.389 84.728,80.998 84.476,79.988 Z" id="Shape"></path>
        </g>
    </g>
</svg>