<svg xmlns="http://www.w3.org/2000/svg" xmlns:xlink="http://www.w3.org/1999/xlink" version="1.1" x="0px" y="0px" viewBox="0 0 100 125" enable-background="new 0 0 100 100" xml:space="preserve"><path d="M83.43,59.406c0.694,5.351-4.472,44.786,8.456,32.817c4.948-6.863,1.438-44.188-4.101-54.2  c-8.255-14.917-25.253-8.298-33.194-1.837c-3.135,2.555-6.18,2.555-6.876,0.878c-1.57-14.525-13.029-12.383-13.518-14.702  c-1.194-5.722-8.87-8.931-9.197-7.899c-1.113,3.494-1.113,3.494-0.745,9.752c-6.399,4.725-7.625,8.314-8.253,8.381  c-1.942,0.207-8.88-0.173-9.698,1.195c-0.719,1.198,2.539,8.779,7.301,9.936c2.336,0.567,1.435,5.746,6.757,7.223  c3.186,0.886-8.278-2.152-14.206,3.114c-5.923,5.266,3.5,8.335,7.58,4.629c6.274-1.755,5.404,2.391,20.907-0.399  c-3.829,3.032-0.609,13.725,1.571,16.437c2.967,3.351,8.843,2.033,8.358-2.551c-0.351-3.351-4.439-3.592-2.089-7.421l4.093-4.87  c0,0,12.285,0.799,16.03-1.116C61.605,68.015,83.43,59.406,83.43,59.406z"/><text x="0" y="115" fill="#000000" font-size="5px" font-weight="bold" font-family="'Helvetica Neue', Helvetica, Arial-Unicode, Arial, Sans-serif">Created by Josi</text><text x="0" y="120" fill="#000000" font-size="5px" font-weight="bold" font-family="'Helvetica Neue', Helvetica, Arial-Unicode, Arial, Sans-serif">from the Noun Project</text></svg>