<svg xmlns="http://www.w3.org/2000/svg" xmlns:xlink="http://www.w3.org/1999/xlink" version="1.1" x="0px" y="0px" viewBox="0 0 100 125" enable-background="new 0 0 100 100" xml:space="preserve"><path d="M27.305,91.537c-6.132,8.856-21.514-10.159-20.02-18.825c3.042-17.641-1.258-19.856,2.392-21.514  c3.286-1.494,5.378,4.781,4.779,1.195c-0.298-2.39-1.244-0.498,1.745-6.474C8.64,38.384,4.708,26.093,11.773,20.38  c8.006-6.475,16.867-3.849,21.79-2.208c9.99,3.61,3.766-15.985,19.518-12.375c5.833,1.336-3.61,24.847-16.564,23.534  c-25.125-2.546-18.699,4.825-15.598,12.239c19.422-8.367,36.267,0.367,37.762,11.423c7.47-0.896,7.17,2.69,10.158,0  c4.214-3.793,14.94-2.39,14.94-0.598c0,7.77-5.379,7.77-5.379,10.757c4.482,5.08,1.196,10.16,1.196,10.16  c6.873,2.989,5.378,2.39,9.561,5.976c-3.884,5.079-16.135,5.378-16.135,5.378c10.757,3.585,10.459,8.495,6.575,10.159  c-4.183,1.792-8.666-1.494-10.757-2.39c-9.263,1.195-22.111,3.586-25.1-1.792c-1.377-2.479,3.585-0.598-1.792-4.781  c-9.86,3.585-22.41-8.366-22.41-8.366c6.574,6.275-7.172-5.08,4.779,7.47C28.5,87.354,29.994,87.653,27.305,91.537z"/><text x="0" y="115" fill="#000000" font-size="5px" font-weight="bold" font-family="'Helvetica Neue', Helvetica, Arial-Unicode, Arial, Sans-serif">Created by Josi</text><text x="0" y="120" fill="#000000" font-size="5px" font-weight="bold" font-family="'Helvetica Neue', Helvetica, Arial-Unicode, Arial, Sans-serif">from the Noun Project</text></svg>