<svg xmlns="http://www.w3.org/2000/svg" xmlns:xlink="http://www.w3.org/1999/xlink" version="1.1" x="0px" y="0px" viewBox="0 0 100 125" enable-background="new 0 0 100 100" xml:space="preserve"><path d="M89.678,88.594c-18.569,0.444,1.103,0-36.732,0.367c-38.772,0.377-41.142,1.653-42.609-4.04  c-1.657-6.425,5.517-6.155,5.517-6.155c2.713-11.826,1.814-14.733,1.462-16.436C6.156,54.405,5.518,44.81,10.702,38.088  c4.958-6.43-9.308-8.443-4.104-15.693c0.551-0.186-0.589-5.125,2.451-6.897c9.517,1.772,10.836-7.898,23.509,0.917  c6.982-1.66,4.806,0.206,10.133-2.549c2.756-1.285,2.098,8.862-2.127,12.537c1.893,14.192-15.375,11.353-4.732,18.449  c23.281,7.531,18.939,27.36,15.083,35.809c14.509,0.552,27.644-0.225,38.847,0.144C97.293,82.272,97.393,88.408,89.678,88.594z"/><text x="0" y="115" fill="#000000" font-size="5px" font-weight="bold" font-family="'Helvetica Neue', Helvetica, Arial-Unicode, Arial, Sans-serif">Created by Josi</text><text x="0" y="120" fill="#000000" font-size="5px" font-weight="bold" font-family="'Helvetica Neue', Helvetica, Arial-Unicode, Arial, Sans-serif">from the Noun Project</text></svg>