<svg xmlns="http://www.w3.org/2000/svg" viewBox="0 0 63 21.25" x="0px" y="0px"><path fill="#000000" fill-rule="evenodd" d="M667.5,339 C662.80558,339 659,335.19442 659,330.5 C659,325.80558 662.80558,322 667.5,322 C672.19442,322 676,325.80558 676,330.5 C676,335.19442 672.19442,339 667.5,339 Z M667.5,337 C671.089851,337 674,334.089851 674,330.5 C674,326.910149 671.089851,324 667.5,324 C663.910149,324 661,326.910149 661,330.5 C661,334.089851 663.910149,337 667.5,337 Z M713.5,339 C708.80558,339 705,335.19442 705,330.5 C705,325.80558 708.80558,322 713.5,322 C718.19442,322 722,325.80558 722,330.5 C722,335.19442 718.19442,339 713.5,339 Z M713.5,337 C717.089851,337 720,334.089851 720,330.5 C720,326.910149 717.089851,324 713.5,324 C709.910149,324 707,326.910149 707,330.5 C707,334.089851 709.910149,337 713.5,337 Z M690.5,339 C685.80558,339 682,335.19442 682,330.5 C682,325.80558 685.80558,322 690.5,322 C695.19442,322 699,325.80558 699,330.5 C699,335.19442 695.19442,339 690.5,339 Z M690.5,337 C694.089851,337 697,334.089851 697,330.5 C697,326.910149 694.089851,324 690.5,324 C686.910149,324 684,326.910149 684,330.5 C684,334.089851 686.910149,337 690.5,337 Z" transform="translate(-659 -322)"/><text x="0" y="32" fill="#000000" font-size="5px" font-weight="bold" font-family="'Helvetica Neue', Helvetica, Arial-Unicode, Arial, Sans-serif">Created by Andrejs Kirma</text><text x="0" y="37" fill="#000000" font-size="5px" font-weight="bold" font-family="'Helvetica Neue', Helvetica, Arial-Unicode, Arial, Sans-serif">from the Noun Project</text></svg>