<svg xmlns="http://www.w3.org/2000/svg" xmlns:xlink="http://www.w3.org/1999/xlink" version="1.1" x="0px" y="0px" viewBox="0 0 100 125" enable-background="new 0 0 100 100" xml:space="preserve"><path d="M22.817,16.233c0,0,6.777-0.587,10.47,4.184c1.783-4.376,9.372-7.462,12.192-6.452c0.646-7.75,3.551-10.009,3.551-10.009  s8.557,2.421,8.557,10.817c7.323,4.027,12.522,19.038,0.246,26.993c0.603,12.39,16.294,13.252,16.307,27.079  c0.016,14.542-20.442,16.231-18.074,15.992c-6.66,7.871-19.597,12.481-30.504,6.15c-13.13-7.616-12.671-26.155-3.173-24.694  c9.783,1.505-1.364,9.782,4.977,16.827c3.09,3.431,13.413,8.247,23.198,1.72c0,0-16.676,0.29-16.676-13.774  s12.529-12.473,9.955-24.948C28.43,47.656,25.975,35.529,27.194,31.133C19.898,26.361,22.817,16.233,22.817,16.233z"/><text x="0" y="115" fill="#000000" font-size="5px" font-weight="bold" font-family="'Helvetica Neue', Helvetica, Arial-Unicode, Arial, Sans-serif">Created by Josi</text><text x="0" y="120" fill="#000000" font-size="5px" font-weight="bold" font-family="'Helvetica Neue', Helvetica, Arial-Unicode, Arial, Sans-serif">from the Noun Project</text></svg>