<?xml version="1.0" encoding="UTF-8"?>
<svg width="71px" height="71px" viewBox="0 0 71 71" version="1.1" xmlns="http://www.w3.org/2000/svg" xmlns:xlink="http://www.w3.org/1999/xlink">
    <!-- Generator: Sketch 48.2 (47327) - http://www.bohemiancoding.com/sketch -->
    <title>right-arrow-circle</title>
    <desc>Created with Sketch.</desc>
    <defs>
        <path d="M35.5,71 C55.1061093,71 71,55.1061093 71,35.5 C71,15.8938907 55.1061093,0 35.5,0 C15.8938907,0 0,15.8938907 0,35.5 C0,55.1061093 15.8938907,71 35.5,71 Z" id="path-1"></path>
        <polyline id="path-2" points="45.9099998 23 32 37.0561057 45.9099998 51.1122114"></polyline>
    </defs>
    <g id="Page-1" stroke="none" stroke-width="1" fill="none" fill-rule="evenodd">
        <g id="right-arrow-circle">
            <g id="Path">
                <use fill="#D8D8D8" fill-rule="evenodd" xlink:href="#path-1"></use>
                <path stroke="#8C3F3F" stroke-width="2" d="M35.5,70 C54.5538246,70 70,54.5538246 70,35.5 C70,16.4461754 54.5538246,1 35.5,1 C16.4461754,1 1,16.4461754 1,35.5 C1,54.5538246 16.4461754,70 35.5,70 Z"></path>
            </g>
            <g id="right-arrow" stroke-linecap="round" transform="translate(38.955000, 37.056106) scale(-1, 1) translate(-38.955000, -37.056106) ">
                <use stroke="#DFBD85" stroke-width="8" xlink:href="#path-2"></use>
                <use stroke="#979797" stroke-width="1" xlink:href="#path-2"></use>
            </g>
        </g>
    </g>
</svg>