<?xml version="1.0" encoding="UTF-8"?>
<svg width="99px" height="63px" viewBox="0 0 99 63" version="1.1" xmlns="http://www.w3.org/2000/svg" xmlns:xlink="http://www.w3.org/1999/xlink">
    <!-- Generator: Sketch 48.2 (47327) - http://www.bohemiancoding.com/sketch -->
    <title>Yarn</title>
    <desc>Created with Sketch.</desc>
    <defs></defs>
    <g id="Page-1" stroke="none" stroke-width="1" fill="none" fill-rule="evenodd">
        <g id="Yarn" fill="#000000" fill-rule="nonzero">
            <path d="M71.721,0.679 C61.438,-0.73 51.159,3.054 44.222,10.799 C40.069,15.438 37.426,21.164 36.576,27.359 C36.056,31.161 36.229,34.967 37.094,38.672 C37.928,42.247 39.378,45.628 41.405,48.714 C41.507,48.867 41.616,49.014 41.721,49.166 C36.056,52.204 29.393,52.491 21.898,50.003 C21.673,49.906 21.234,49.727 20.669,49.505 C23.022,47.268 26.193,43.466 26.193,39.177 C26.193,38.983 26.187,38.785 26.174,38.587 C25.917,34.874 23.298,31.695 18.388,29.141 C17.688,28.776 16.824,29.047 16.46,29.748 C16.351,29.959 16.298,30.186 16.298,30.406 C16.298,30.924 16.579,31.421 17.068,31.675 C21.031,33.738 23.135,36.128 23.321,38.779 C23.33,38.916 23.335,39.051 23.335,39.187 C23.335,43.075 19.527,46.791 17.61,48.416 C13.049,46.936 6.17,45.37 2.493,47.906 C1.281,48.739 -0.133,50.406 0.011,53.607 L0.015,53.705 L0.033,53.799 C0.188,54.656 0.959,56.313 2.861,57.081 C6.136,58.404 11.283,56.566 18.161,51.624 C19.13,51.967 20.057,52.32 20.852,52.665 L20.909,52.687 L20.969,52.708 C29.421,55.519 36.98,55.099 43.45,51.478 C48.413,57.474 55.466,61.437 63.257,62.503 C80.302,64.837 96.069,52.868 98.403,35.822 C100.734,18.779 88.766,3.012 71.721,0.679 Z M3.983,54.451 C3.155,54.139 2.919,53.523 2.863,53.331 C2.861,53.271 2.859,53.21 2.859,53.15 C2.859,51.788 3.272,50.838 4.113,50.257 C6.147,48.855 10.541,49.41 14.696,50.535 C7.881,55.074 4.956,54.816 3.983,54.451 Z M71.332,3.511 C71.703,3.562 72.062,3.642 72.426,3.707 C69.727,4.853 66.498,5.842 63.637,6.349 C60.61,6.887 57.563,6.706 54.739,6.291 C59.791,3.739 65.559,2.72 71.332,3.511 Z M50.553,8.883 C50.598,8.896 50.641,8.916 50.688,8.925 C54.665,9.741 59.383,10.459 64.213,9.601 C68.57,8.828 73.541,7.105 76.877,5.212 C76.99,5.149 77.09,5.069 77.182,4.983 C78.078,5.311 78.955,5.666 79.803,6.075 C76.033,9.337 70.889,12.187 64.559,13.314 C58.58,14.377 53.67,13.204 48.232,10.811 C48.975,10.125 49.75,9.483 50.553,8.883 Z M45.93,13.209 C45.979,13.238 46.025,13.271 46.078,13.295 C52.398,16.19 58.234,17.634 65.109,16.413 C72.269,15.14 78.099,11.861 82.345,8.048 C82.467,7.936 82.564,7.805 82.646,7.668 C83.336,8.108 84.015,8.566 84.664,9.062 C79.312,14.504 74.697,17.321 67.275,18.641 C57.982,20.292 49.981,19.314 44.42,15.147 C44.895,14.482 45.4,13.837 45.93,13.209 Z M39.337,28.436 C44.399,28.662 49.641,30.655 54.382,34.111 C54.096,34.918 53.77,35.706 53.411,36.478 C49.167,33.152 44.33,31.036 39.187,30.257 C39.219,29.65 39.269,29.043 39.337,28.436 Z M39.794,25.601 C39.974,24.768 40.202,23.949 40.454,23.14 C46.551,24.104 51.359,25.766 55.743,28.537 C55.618,29.439 55.45,30.331 55.238,31.205 C50.365,27.854 45.014,25.905 39.794,25.601 Z M47.171,19.997 C48.142,20.414 49.156,20.764 50.205,21.062 C50.284,21.683 50.315,22.185 50.317,22.701 C49.332,22.335 48.318,22.003 47.272,21.703 C47.249,21.103 47.221,20.555 47.171,19.997 Z M53.148,23.888 C53.179,23.126 53.191,22.471 53.142,21.722 C54.004,21.872 54.883,22 55.788,22.083 C55.923,23.242 55.986,24.31 55.98,25.362 C55.061,24.83 54.117,24.338 53.148,23.888 Z M58.676,22.237 C59.639,22.25 60.617,22.236 61.615,22.178 C61.838,24.603 61.621,26.558 61.291,28.99 L61.281,29.031 C60.455,28.356 59.619,27.724 58.769,27.133 C58.887,25.525 58.854,23.962 58.676,22.237 Z M64.461,21.929 C65.227,21.84 65.998,21.741 66.779,21.617 C67.091,24.548 67.076,27.447 66.693,30.242 C66.543,31.346 66.322,32.443 66.07,33.529 C65.674,33.099 65.283,32.67 64.865,32.256 C64.508,31.901 64.148,31.565 63.791,31.227 L64.121,29.377 C64.471,26.84 64.709,24.644 64.461,21.929 Z M69.598,21.087 C70.33,20.923 71.045,20.747 71.733,20.552 C72.713,24.768 72.875,27.666 72.346,31.53 C71.992,34.123 71.33,36.653 70.387,39.082 C69.752,38.093 69.086,37.117 68.35,36.175 C68.871,34.37 69.268,32.509 69.526,30.631 C69.949,27.533 69.961,24.326 69.598,21.087 Z M74.473,19.719 C74.469,19.692 74.455,19.668 74.449,19.644 C75.285,19.321 76.092,18.971 76.871,18.583 C78.17,23.493 78.92,28.669 78.276,33.33 C77.668,37.728 75.985,41.802 73.778,45.654 C73.33,44.497 72.799,43.335 72.182,42.154 C73.676,38.907 74.692,35.466 75.178,31.916 C75.76,27.662 75.568,24.357 74.473,19.719 Z M79.754,17.113 C79.74,17.061 79.717,17.014 79.699,16.966 C80.164,16.663 80.619,16.332 81.076,16 C83.689,22.917 85.205,28.779 84.435,34.141 C83.476,40.826 80.285,46.364 75.429,51.934 C75.285,50.93 75.092,49.94 74.842,48.96 C77.734,44.333 80.691,38.945 81.406,33.761 C82.137,28.48 81.268,22.619 79.754,17.113 Z M75.721,56.318 C82.092,49.521 86.233,42.922 87.409,34.732 C88.294,28.574 86.546,21.913 83.515,14.064 C83.788,13.827 84.066,13.566 84.341,13.317 C88.995,19.647 91.224,28.159 90.173,35.848 C88.872,45.346 81.855,52.565 75.714,56.631 C75.717,56.527 75.721,56.423 75.721,56.318 Z M44.113,18.392 C44.106,18.503 44.107,18.616 44.127,18.73 C44.275,19.596 44.335,20.243 44.377,20.975 C43.436,20.767 42.472,20.575 41.472,20.407 C41.89,19.433 42.345,18.476 42.869,17.553 C43.271,17.849 43.688,18.126 44.113,18.392 Z M39.186,33.16 C43.842,33.943 48.215,35.955 52.053,39.068 C51.356,40.238 50.575,41.355 49.716,42.414 C46.659,39.941 43.256,38.079 39.657,36.93 C39.417,35.684 39.254,34.426 39.186,33.16 Z M44.148,47.652 C44.03,47.482 43.908,47.316 43.794,47.142 C42.383,44.996 41.287,42.691 40.508,40.271 C43.093,41.295 45.551,42.732 47.806,44.539 C46.684,45.667 45.464,46.714 44.148,47.652 Z M45.886,49.925 C47.355,48.872 48.71,47.697 49.958,46.43 C50.043,46.512 50.133,46.588 50.218,46.671 C52.999,49.422 55.032,53.053 56.401,57.666 C52.361,55.943 48.755,53.305 45.886,49.925 Z M59.688,58.837 C58.211,52.795 55.756,48.133 52.229,44.639 C52.112,44.524 51.987,44.42 51.869,44.305 C52.727,43.252 53.516,42.147 54.229,40.994 C54.276,41.04 54.328,41.08 54.375,41.125 C58.979,45.686 62.332,52.859 63.127,59.589 C61.957,59.407 60.812,59.157 59.688,58.837 Z M66.033,59.893 C65.314,52.291 61.65,44.309 56.383,39.093 C56.145,38.858 55.901,38.632 55.658,38.406 C56.049,37.613 56.406,36.802 56.728,35.976 C57.353,36.517 57.967,37.075 58.568,37.666 C64.769,43.804 68.478,52.36 68.312,59.913 C67.559,59.938 66.799,59.934 66.033,59.893 Z M60.578,35.637 C59.65,34.721 58.689,33.866 57.705,33.063 C57.955,32.168 58.156,31.256 58.33,30.336 C59.855,31.495 61.35,32.799 62.855,34.287 C65.213,36.623 67.209,39.183 68.783,41.898 C72.197,47.791 73.31,52.749 72.707,59.439 C72.197,59.535 71.686,59.62 71.166,59.689 C71.242,51.445 67.238,42.227 60.578,35.637 Z M95.568,35.436 C94.252,45.053 88.226,52.887 80.14,56.94 C85.976,52.311 91.777,45.206 93.004,36.237 C94.17,27.717 91.65,18.278 86.42,11.336 C86.564,11.193 86.703,11.064 86.847,10.918 C93.316,16.991 96.861,25.994 95.568,35.436 Z" id="Shape"></path>
        </g>
    </g>
</svg>